<svg width="20" height="20" viewBox="0 0 20 20" fill="none" xmlns="http://www.w3.org/2000/svg">
<path d="M7.61914 7.33857H9.34564C10.1186 7.33857 10.6885 7.70234 10.8182 8.42988H7.61914V9.09586H10.8182C10.6941 9.83459 10.1525 10.1872 9.38514 10.1872H7.61914V11.021L10.4289 14.267H11.7661L8.94505 11.0266H9.4867C10.9537 11.0154 11.6815 10.092 11.8226 9.09586H12.6858V8.42988H11.8338C11.7831 7.93739 11.6082 7.58481 11.3317 7.33297H12.6858V6.66699H7.61914V7.33857Z" fill="#1373E6"/>
<path d="M10 18.75C5.16751 18.75 1.25 14.8325 1.25 10C1.25 5.16751 5.16751 1.25 10 1.25C14.8325 1.25 18.75 5.16751 18.75 10C18.75 14.8325 14.8325 18.75 10 18.75ZM10 20C15.5228 20 20 15.5228 20 10C20 4.47715 15.5228 0 10 0C4.47715 0 0 4.47715 0 10C0 15.5228 4.47715 20 10 20Z" fill="#1373E6"/>
<path d="M10 16.875C6.20304 16.875 3.125 13.797 3.125 10C3.125 6.20304 6.20304 3.125 10 3.125C13.797 3.125 16.875 6.20304 16.875 10C16.875 13.797 13.797 16.875 10 16.875ZM10 17.5C14.1421 17.5 17.5 14.1421 17.5 10C17.5 5.85786 14.1421 2.5 10 2.5C5.85786 2.5 2.5 5.85786 2.5 10C2.5 14.1421 5.85786 17.5 10 17.5Z" fill="#1373E6"/>
</svg>
