<svg width="21" height="16" viewBox="0 0 21 16" fill="none" xmlns="http://www.w3.org/2000/svg">
<path d="M15.3083 6.66667H20.6592C20.9476 6.66667 21.1051 6.99629 20.9205 7.21339L18.2451 10.3594C18.1091 10.5193 17.8584 10.5193 17.7224 10.3594L15.047 7.2134C14.8624 6.99629 15.0199 6.66667 15.3083 6.66667Z" fill="#5F5D5A"/>
<path d="M0.340821 9.33333H5.69168C5.98008 9.33333 6.13764 9.00372 5.953 8.78661L3.27757 5.64062C3.14158 5.4807 2.89092 5.4807 2.75492 5.64062L0.0794943 8.78661C-0.105141 9.00371 0.0524117 9.33333 0.340821 9.33333Z" fill="#5F5D5A"/>
<path fill-rule="evenodd" clip-rule="evenodd" d="M10.5 1.33333C8.38755 1.33333 6.50036 2.27596 5.25142 3.75785C5.01216 4.04174 4.58334 4.08182 4.29362 3.84737C4.00391 3.61291 3.96301 3.19271 4.20227 2.90881C5.69862 1.13337 7.96453 0 10.5 0C14.5027 0 17.8314 2.82201 18.5295 6.54622C18.537 6.58627 18.5442 6.62642 18.5511 6.66667H17.1675C16.5374 3.62371 13.791 1.33333 10.5 1.33333ZM3.83255 9.33333C4.46256 12.3763 7.20902 14.6667 10.5 14.6667C12.6124 14.6667 14.4996 13.724 15.7486 12.2421C15.9878 11.9583 16.4167 11.9182 16.7064 12.1526C16.9961 12.3871 17.037 12.8073 16.7977 13.0912C15.3014 14.8666 13.0355 16 10.5 16C6.49728 16 3.16862 13.178 2.4705 9.45378C2.46299 9.41373 2.45579 9.37358 2.4489 9.33333H3.83255Z" fill="#5F5D5A"/>
<path d="M8 4.70515H9.81283C10.6245 4.70515 11.2228 5.08711 11.3591 5.85103H8V6.55031H11.3591C11.2287 7.32598 10.66 7.69619 9.8543 7.69619H8V8.57175L10.9503 11.98H12.3543L9.3922 8.57763H9.96094C11.5012 8.56588 12.2655 7.59629 12.4136 6.55031H13.32V5.85103H12.4254C12.3721 5.33392 12.1885 4.96371 11.8982 4.69928H13.32V4H8V4.70515Z" fill="#5F5D5A"/>
</svg>
