<svg width="185" height="35" viewBox="0 0 185 35" fill="none" xmlns="http://www.w3.org/2000/svg">
<path d="M30 0H5C2.23858 0 0 2.23858 0 5V30C0 32.7614 2.23858 35 5 35H30C32.7614 35 35 32.7614 35 30V5C35 2.23858 32.7614 0 30 0Z" fill="url(#paint0_radial_95_23699)"/>
<path d="M15.8333 9.16663H7.5C6.83696 9.16663 6.20107 9.43002 5.73223 9.89886C5.26339 10.3677 5 11.0036 5 11.6666V23.3333C5.00095 23.8624 5.16977 24.3776 5.48216 24.8047C5.79454 25.2318 6.23439 25.5488 6.73837 25.71C7.24236 25.8712 7.7845 25.8683 8.28676 25.7018C8.78901 25.5353 9.22548 25.2137 9.53333 24.7833L17.8667 13.1166C18.1327 12.7429 18.2909 12.3032 18.3237 11.8456C18.3566 11.3881 18.2629 10.9303 18.0529 10.5224C17.8429 10.1145 17.5248 9.77228 17.1333 9.53315C16.7418 9.29402 16.2921 9.16721 15.8333 9.16663ZM9.16667 15C8.83703 15 8.5148 14.9022 8.24072 14.7191C7.96663 14.5359 7.75301 14.2756 7.62687 13.9711C7.50072 13.6666 7.46772 13.3314 7.53202 13.0081C7.59633 12.6848 7.75507 12.3879 7.98816 12.1548C8.22124 11.9217 8.51821 11.763 8.84152 11.6987C9.16482 11.6343 9.49993 11.6673 9.80447 11.7935C10.109 11.9196 10.3693 12.1333 10.5524 12.4073C10.7356 12.6814 10.8333 13.0037 10.8333 13.3333C10.8333 13.7753 10.6577 14.1992 10.3452 14.5118C10.0326 14.8244 9.60869 15 9.16667 15Z" fill="#0D0A03"/>
<path d="M22.0833 25C23.2339 25 24.1667 24.0673 24.1667 22.9167C24.1667 21.7661 23.2339 20.8334 22.0833 20.8334C20.9327 20.8334 20 21.7661 20 22.9167C20 24.0673 20.9327 25 22.0833 25Z" fill="#0D0A03"/>
<path d="M30 11.6666V23.3333C30.0009 23.9572 29.7686 24.5588 29.3486 25.0201C28.9286 25.4815 28.3513 25.7691 27.7301 25.8265C27.1089 25.8839 26.4886 25.707 25.9912 25.3305C25.4937 24.954 25.1551 24.4051 25.0416 23.7916C25.015 23.6403 25.0011 23.487 25 23.3333V21.4333C24.9955 20.9056 24.8242 20.3928 24.5105 19.9684C24.1968 19.544 23.7569 19.2297 23.2537 19.0706C22.7505 18.9115 22.2099 18.9158 21.7093 19.0827C21.2086 19.2496 20.7736 19.5707 20.4666 20L19.1666 21.825L17.075 24.7583C16.676 25.2655 16.0964 25.5989 15.4574 25.6886C14.8183 25.7783 14.1693 25.6174 13.6461 25.2395C13.123 24.8617 12.7662 24.2962 12.6504 23.6614C12.5347 23.0265 12.6689 22.3715 13.025 21.8333L21.3583 10.1666C21.5886 9.85949 21.8866 9.60952 22.2291 9.43611C22.5716 9.26269 22.9494 9.17048 23.3333 9.16663H27.5C28.163 9.16663 28.7989 9.43002 29.2677 9.89886C29.7366 10.3677 30 11.0036 30 11.6666Z" fill="#FFFDFA"/>
<path d="M50.9833 9.16663H45.625L40 25.8333H44.3333L45.425 22.3333H51.1833L52.2833 25.8333H56.6083L50.9833 9.16663ZM46.3833 19.2666L48.2333 13.3333H48.3333L50.1917 19.2416L46.3833 19.2666Z" fill="#0D0A03"/>
<path d="M68.475 17.15L64.8166 17.25C64.7826 16.992 64.6756 16.7492 64.5083 16.55C64.3314 16.3398 64.1052 16.1766 63.85 16.075C63.5571 15.9533 63.2421 15.8937 62.925 15.9C62.5159 15.8862 62.1105 15.9811 61.75 16.175C61.625 16.2348 61.517 16.3249 61.4356 16.437C61.3543 16.5491 61.3021 16.6797 61.2839 16.817C61.2657 16.9543 61.282 17.094 61.3314 17.2235C61.3808 17.3529 61.4616 17.468 61.5666 17.5583C61.8909 17.7874 62.2652 17.9359 62.6583 17.9916L65.0666 18.4416C66.088 18.5784 67.053 18.9903 67.8583 19.6333C68.1619 19.9117 68.4017 20.2524 68.5614 20.6321C68.721 21.0119 68.7967 21.4216 68.7833 21.8333C68.7921 22.6438 68.5213 23.4325 68.0166 24.0666C67.475 24.7301 66.7679 25.2389 65.9666 25.5416C65.0151 25.9064 64.0022 26.0847 62.9833 26.0666C61.501 26.1587 60.0269 25.7858 58.7666 25C58.2759 24.6646 57.8643 24.2261 57.5606 23.7151C57.2569 23.2041 57.0684 22.633 57.0083 22.0416L60.9333 21.9416C60.968 22.1524 61.0458 22.3537 61.162 22.533C61.2781 22.7122 61.4301 22.8656 61.6083 22.9833C62.028 23.2335 62.5118 23.3551 63 23.3333C63.4345 23.3531 63.8664 23.2552 64.25 23.05C64.3946 22.983 64.517 22.876 64.6027 22.7416C64.6884 22.6072 64.7337 22.451 64.7333 22.2916C64.7352 22.1562 64.7017 22.0225 64.6359 21.9041C64.5701 21.7857 64.4744 21.6866 64.3583 21.6166C64.0098 21.4036 63.6212 21.2646 63.2166 21.2083L61.0333 20.8C59.9941 20.668 59.0185 20.2267 58.2333 19.5333C57.9269 19.2245 57.6879 18.8555 57.5315 18.4495C57.3752 18.0435 57.3048 17.6095 57.325 17.175C57.2972 16.406 57.5323 15.6506 57.9916 15.0333C58.4859 14.403 59.1513 13.9285 59.9083 13.6666C60.8519 13.3311 61.8487 13.1701 62.85 13.1916C64.2627 13.1137 65.6636 13.4873 66.85 14.2583C67.3188 14.5891 67.708 15.0204 67.9891 15.5206C68.2702 16.0208 68.4362 16.5775 68.475 17.15Z" fill="#0D0A03"/>
<path d="M81.1918 17.1499L77.5001 17.2499C77.466 16.992 77.3591 16.7492 77.1918 16.5499C77.0148 16.3398 76.7887 16.1766 76.5334 16.0749C76.2405 15.9532 75.9256 15.8936 75.6084 15.8999C75.1994 15.8862 74.7939 15.9811 74.4334 16.1749C74.3085 16.2348 74.2005 16.3248 74.1191 16.4369C74.0377 16.549 73.9856 16.6797 73.9674 16.817C73.9492 16.9543 73.9655 17.094 74.0149 17.2234C74.0642 17.3529 74.1451 17.4679 74.2501 17.5583C74.5744 17.7874 74.9486 17.9359 75.3418 17.9916L77.7501 18.4416C78.7715 18.5784 79.7365 18.9903 80.5418 19.6333C80.8514 19.9086 81.0975 20.248 81.263 20.6278C81.4285 21.0077 81.5094 21.419 81.5001 21.8333C81.5089 22.6437 81.2381 23.4324 80.7334 24.0666C80.1918 24.7301 79.4847 25.2389 78.6834 25.5416C77.7319 25.9064 76.719 26.0846 75.7001 26.0666C74.2178 26.1587 72.7437 25.7858 71.4834 24.9999C70.9927 24.6645 70.5811 24.226 70.2774 23.7151C69.9737 23.2041 69.7852 22.633 69.7251 22.0416L73.6501 21.9416C73.6848 22.1524 73.7626 22.3537 73.8788 22.533C73.9949 22.7122 74.1469 22.8655 74.3251 22.9833C74.7439 23.2363 75.2278 23.3609 75.7168 23.3416C76.1513 23.3614 76.5832 23.2635 76.9668 23.0583C77.1114 22.9913 77.2338 22.8843 77.3195 22.7499C77.4052 22.6155 77.4505 22.4593 77.4501 22.2999C77.4521 22.1645 77.4184 22.0308 77.3526 21.9124C77.2868 21.794 77.1912 21.6949 77.0751 21.6249C76.7266 21.4119 76.338 21.2729 75.9334 21.2166L73.7501 20.8083C72.7109 20.6763 71.7354 20.235 70.9501 19.5416C70.6437 19.2328 70.4047 18.8638 70.2483 18.4578C70.092 18.0518 70.0216 17.6178 70.0418 17.1833C70.014 16.4143 70.2491 15.6589 70.7084 15.0416C71.2027 14.4113 71.8681 13.9368 72.6251 13.6749C73.5687 13.3394 74.5655 13.1784 75.5668 13.1999C76.9795 13.122 78.3804 13.4956 79.5668 14.2666C80.0346 14.5966 80.4231 15.0265 80.7041 15.5252C80.9852 16.0239 81.1518 16.5789 81.1918 17.1499Z" fill="#0D0A03"/>
<path d="M94.7666 20.5416V19.55C94.7828 18.6192 94.6304 17.6931 94.3166 16.8166C94.0512 16.0641 93.6246 15.3787 93.0666 14.8083C92.528 14.265 91.8765 13.8468 91.1582 13.5833C90.3757 13.3 89.5488 13.1589 88.7166 13.1666C87.5671 13.1441 86.4328 13.432 85.4332 14C84.5112 14.5328 83.762 15.3197 83.2749 16.2666C82.7469 17.3063 82.4809 18.4591 82.4999 19.625C82.4697 20.8177 82.733 21.9995 83.2666 23.0666C83.7548 24.0104 84.5155 24.7856 85.4499 25.2916C86.4785 25.8251 87.6247 26.0916 88.7832 26.0666C89.7674 26.0856 90.7462 25.9159 91.6666 25.5666C92.4606 25.2781 93.1707 24.797 93.7332 24.1666C94.2467 23.5526 94.5888 22.8138 94.7249 22.025L91.0749 21.925C90.9752 22.191 90.8155 22.4306 90.6082 22.625C90.3944 22.8202 90.1416 22.9679 89.8666 23.0583C89.5564 23.1551 89.2331 23.2029 88.9082 23.2C88.4492 23.211 87.9953 23.1018 87.5916 22.8833C87.2338 22.6724 86.9444 22.3628 86.7582 21.9916C86.5499 21.5757 86.4469 21.115 86.4582 20.65V20.55L94.7666 20.5416ZM86.7582 17.1416C86.9589 16.7962 87.2461 16.509 87.5916 16.3083C87.9583 16.1224 88.3637 16.0254 88.7749 16.0254C89.1861 16.0254 89.5915 16.1224 89.9582 16.3083C90.3007 16.4907 90.5883 16.7611 90.7916 17.0916C90.9871 17.4344 91.0905 17.822 91.0916 18.2166H86.4666C86.4696 17.8392 86.57 17.4689 86.7582 17.1416Z" fill="#0D0A03"/>
<path d="M103.633 25.6499C103.45 25.7083 103.175 25.7749 102.8 25.8499C102.395 25.9399 101.982 25.9929 101.567 26.0083C100.755 26.0692 99.9394 25.9556 99.1751 25.6749C98.5454 25.4462 98.0092 25.0154 97.6501 24.4499C97.2826 23.8102 97.1061 23.0785 97.1418 22.3416V16.2583H95.4751V13.3333H97.1418V10.3333H101.117V13.3333H103.375V16.2583H101.117V21.8999C101.108 22.1045 101.151 22.3079 101.242 22.4916C101.314 22.6348 101.435 22.7472 101.583 22.8083C101.76 22.8725 101.946 22.9036 102.133 22.8999C102.295 22.8974 102.457 22.8835 102.617 22.8583L103 22.7749L103.633 25.6499Z" fill="#0D0A03"/>
<path d="M105.242 9.16663H110.242L114.475 19.4833H114.667L118.892 9.16663H123.892V25.8333H120V15.6H119.858L115.833 25.725H113.333L109.333 15.5416H109.167V25.8333H105.242V9.16663Z" fill="#0D0A03"/>
<path d="M160.267 25.6499C160.078 25.711 159.8 25.7777 159.433 25.8499C159.028 25.9394 158.615 25.9923 158.2 26.0083C157.385 26.0686 156.567 25.955 155.8 25.6749C155.173 25.4463 154.639 25.0153 154.283 24.4499C153.912 23.8116 153.736 23.0789 153.775 22.3416V16.2583H152.108V13.3333H153.775V10.3333H157.75V13.3333H160.008V16.2583H157.75V21.8999C157.743 22.1035 157.783 22.3059 157.867 22.4916C157.942 22.6354 158.066 22.7476 158.217 22.8083C158.39 22.8719 158.574 22.903 158.758 22.8999C158.92 22.8978 159.082 22.8839 159.242 22.8583L159.633 22.7749L160.267 25.6499Z" fill="#0D0A03"/>
<path d="M135.367 14.2583C134.834 13.8799 134.239 13.5978 133.608 13.4249C132.892 13.2287 132.151 13.1333 131.408 13.1416C130.425 13.1181 129.447 13.2939 128.533 13.6583C127.797 13.9577 127.153 14.4464 126.667 15.0749C126.215 15.6709 125.928 16.3749 125.833 17.1166L129.5 17.2416C129.576 16.8619 129.793 16.5252 130.108 16.2999C130.488 16.0582 130.933 15.939 131.383 15.9583C131.797 15.9374 132.205 16.0579 132.542 16.2999C132.686 16.4145 132.801 16.5622 132.876 16.7304C132.952 16.8986 132.985 17.0825 132.975 17.2666V17.3083C132.979 17.4234 132.955 17.5378 132.904 17.6411C132.853 17.7444 132.777 17.8334 132.683 17.8999C132.391 18.067 132.068 18.1747 131.733 18.2166C131.3 18.2916 130.725 18.3583 130.017 18.4249C129.411 18.4726 128.811 18.5758 128.225 18.7333C127.696 18.8772 127.195 19.1081 126.742 19.4166C126.313 19.7149 125.966 20.1161 125.733 20.5833C125.474 21.1294 125.349 21.7292 125.367 22.3333C125.337 23.057 125.523 23.7732 125.9 24.3916C126.257 24.9331 126.763 25.3588 127.358 25.6166C128.533 26.0774 129.827 26.1418 131.042 25.7999C131.488 25.6624 131.902 25.4356 132.258 25.1333C132.599 24.832 132.882 24.4704 133.092 24.0666H133.192V25.8333H136.933V17.3333C136.945 16.7305 136.807 16.1342 136.533 15.5976C136.258 15.061 135.854 14.6009 135.358 14.2583H135.367ZM132.992 21.3833C133.001 21.7646 132.893 22.1396 132.683 22.4583C132.472 22.7653 132.185 23.0123 131.85 23.1749C131.49 23.3528 131.093 23.4414 130.692 23.4333C130.291 23.4508 129.896 23.3367 129.567 23.1083C129.427 22.9964 129.318 22.8519 129.248 22.6876C129.179 22.5233 129.15 22.3444 129.167 22.1666C129.163 21.9174 129.235 21.6731 129.375 21.4666C129.53 21.2543 129.736 21.085 129.975 20.9749C130.281 20.8422 130.603 20.7498 130.933 20.6999L131.517 20.6166L132.1 20.4999C132.292 20.4583 132.467 20.4083 132.625 20.3583C132.765 20.3163 132.901 20.2633 133.033 20.1999L132.992 21.3833Z" fill="#0D0A03"/>
<path d="M150.433 15.3999C150.808 16.1639 150.991 17.0076 150.967 17.8582V25.8332H146.983V18.6416C147.026 18.0523 146.838 17.4695 146.458 17.0166C146.27 16.8175 146.041 16.662 145.786 16.5612C145.531 16.4605 145.257 16.4168 144.983 16.4332C144.6 16.4266 144.221 16.5184 143.883 16.6999C143.565 16.8804 143.309 17.1536 143.15 17.4832C142.968 17.8625 142.876 18.2791 142.883 18.6999V25.8332H138.908V13.3332H142.692V15.6249H142.825C143.085 14.8845 143.583 14.2514 144.242 13.8249C144.965 13.3646 145.81 13.135 146.667 13.1666C147.471 13.1469 148.264 13.3518 148.958 13.7582C149.594 14.1567 150.105 14.7254 150.433 15.3999Z" fill="#0D0A03"/>
<path d="M165.85 9.16663H161.875V25.8333H165.85V9.16663Z" fill="#0D0A03"/>
<path d="M179.692 20.5416V19.55C179.708 18.6192 179.556 17.6931 179.242 16.8166C178.976 16.0641 178.55 15.3787 177.992 14.8083C177.453 14.265 176.802 13.8468 176.083 13.5833C175.301 13.3 174.474 13.1589 173.642 13.1666C172.492 13.1441 171.358 13.432 170.358 14C169.436 14.5328 168.687 15.3197 168.2 16.2666C167.671 17.3145 167.408 18.4764 167.433 19.65C167.403 20.8427 167.666 22.0245 168.2 23.0916C168.688 24.0354 169.449 24.8106 170.383 25.3166C171.412 25.8501 172.558 26.1166 173.717 26.0916C174.701 26.1106 175.68 25.9409 176.6 25.5916C177.394 25.2947 178.101 24.805 178.658 24.1666C179.172 23.5526 179.514 22.8138 179.65 22.025L176 21.925C175.9 22.191 175.741 22.4306 175.533 22.625C175.32 22.8202 175.067 22.9679 174.792 23.0583C174.482 23.1551 174.158 23.2029 173.833 23.2C173.374 23.211 172.92 23.1018 172.517 22.8833C172.159 22.6724 171.87 22.3628 171.683 21.9916C171.475 21.5757 171.372 21.115 171.383 20.65V20.55L179.692 20.5416ZM171.667 17.1416C171.867 16.7962 172.155 16.509 172.5 16.3083C172.867 16.1224 173.272 16.0254 173.683 16.0254C174.095 16.0254 174.5 16.1224 174.867 16.3083C175.209 16.4907 175.497 16.7611 175.7 17.0916C175.896 17.4344 175.999 17.822 176 18.2166H171.375C171.378 17.8392 171.479 17.4689 171.667 17.1416Z" fill="#0D0A03"/>
<defs>
<radialGradient id="paint0_radial_95_23699" cx="0" cy="0" r="1" gradientUnits="userSpaceOnUse" gradientTransform="translate(17.5 17.5) scale(17.5 17.5)">
<stop offset="0.473958" stop-color="#FFC640"/>
<stop offset="1" stop-color="#F2AF13"/>
</radialGradient>
</defs>
</svg>
